<svg width="97" height="32" viewBox="0 0 97 32" fill="none" xmlns="http://www.w3.org/2000/svg">
    <path fill-rule="evenodd" clip-rule="evenodd" d="M37.13 27.046c-3.597-2.27-8.48-2.668-16.355-.529-1.2.277-2.287.539-3.277.778-5.936 1.432-8.442 2.037-11.592-.093-1.413-1.222-1.919-3.188-1.54-6.02.876-4.617 3.246-9.06 7.455-13.99 2.35-2.563 4.529-4.763 7.406-5.647 2.206-.554 2 1.143 1.733 1.386-.282 0-.755.043-1.12.277-.297.225-1.112.953-1.155 1.932-.063 1.498 1.52 1.186 2.203.364.736-.927 1.824-2.703.968-4.357-.359-.59-.978-.996-1.748-1.135-2.635-.147-5.089 1.083-7.354 2.443-4.953 3.37-8.915 8.038-11.157 13.149-1.293 3.083-2.462 7.5-.71 11.096 1.356 2.494 4.17 3.82 7.527 3.542 1.989-.205 4.328-.768 6.161-1.209.338-.081.659-.159.957-.229.173-.04.41-.104.702-.183 2.932-.79 11.307-3.048 14.237 2.176 0 0 1.071-2.036 3.748-2.08 2.2-.198 5.375.624 7.687 2.287-.77-1.134-2.954-2.806-4.776-3.958zM92.121 4.272c-2.208 1.192-4.498 1.964-7.27 1.696a40.982 40.982 0 0 0-2.205 2.544c3.89.94 8.014-1.15 10.314-3.14C95.394 3.365 96.641.838 96.641.838s-1.824 1.981-4.52 3.434zM59.764 16.286c-.295-.604-.993-.99-1.737-.948-2.417.21-4.78 2.099-6.022 4.81-.651 1.395-1.007 2.545-1.24 4.375.752-.823 2.285-2.174 4.024-2.913 0 0 .237-1.755 1.444-3.317.457-.646 1.37-1.688 2.397-1.41.897.285.581 2.645-.61 4.928-.882 1.68-2.232 3.359-3.597 4.517-1.207.974-2.993 2.15-4.556 1.243-.984-.554-1.486-1.713-1.38-3.207.47-4.24 2.5-7.85 5.407-11.965 2.996-3.82 6.299-7.74 10.748-9.832.908-.436 1.748-.537 2.475-.268 0 0-4.177 2.183-6.168 6.221l-.022.045c-.505 1.02-1.178 2.382-.48 3.59.371.639 1.03.69 1.56.655 2.44-.537 4.016-2.703 5.305-4.684.746-1.503 1.41-2.998 1.41-4.66 0-.202-.01-.47-.028-.672 1.165-.588 3.556.453 3.556.453 1.098.346 2.925 1.49 4.518 2.485 1.116.7 2.117 1.326 2.67 1.554.655-.722 1.73-1.813 2.337-2.36l-.877-.511c-1.345-.78-2.764-1.523-4.165-2.256l-.183-.095C73.233.343 70.534.947 69.16 1.417a74.28 74.28 0 0 1-1.034.344c-1.02-1.058-2.692-.957-3.924-.671-4.432 1.209-8.546 4.156-12.957 9.269-3.243 4.005-5.254 7.464-6.327 10.881-.826 2.3-1.077 5.684.94 7.691 1.715 1.704 3.99 1.335 5.595.723 3.48-1.63 6.606-5.14 8.165-9.178.376-1.2.793-2.896.146-4.19zm-46.396-3.14c2.947-3.744 6.627-5.927 8.458-4.785 1.692 1.171.393 4.115-.025 5.063a7.093 7.093 0 0 0-.097.226c.657.16 2.758-1.267 3.982-2.552.973-1.025 2.64-2.343 3.693-2.72.787-.362 2.002-.479 2.8-.026.534.294.892.899.93 1.537.105 1.78-2.074 4.702-3.166 3.224-.225-.638.02-1.318.728-2.024.359-.352.8-.511 1.352-.495.217-.327.162-.805-.182-.999-.36-.21-1.087-.067-1.755.428-2.367 1.789-4.447 4.753-5.654 8.02-.213.612-.33 1.545.049 2.183 1.037 1.52 3.463-.595 3.463-.595 1.638-1.385 3.218-3.305 4.458-5.01 3.223-4.432 7.503-8.255 9.393-5.77.016.02.034.048.051.075a.447.447 0 0 0 .053.073c.027-.034.36-.547.36-.547h3.05l-6.47 10.67c-.133.26-.22.626-.002.802.163.11.438-.01.478-.029l.006-.002c1.514-.698 3.766-3.667 4.196-4.234.046-.06.07-.094.072-.094h1.051c-1.647 2.295-3.687 4.95-6.219 6.645-.703.445-1.627.92-2.54.608-.868-.519-.813-1.152-.747-1.905.008-.088.016-.178.022-.269l-.005.005c-.003.003-.008.01-.016.017-.24.262-2.49 2.72-4.39 2.194-.665-.201-1.726-.747-.939-3.35 0 0 .06-.235.107-.41l-.506.46c-1.894 1.764-4.042 3.746-6.732 3.317-1.814-.536-1.954-2.177-2.015-2.894a4.89 4.89 0 0 0-.02-.204c-.211-1.645 1.709-4.845 1.975-5.288v-.001a1.52 1.52 0 0 0 .03-.05c-.583.159-1.1.276-1.53.352-.034.05-.729 1.142-.729 1.142l-.043.067c-.743 1.172-1.514 2.387-2.506 3.4l-.192.194c-1.488 1.654-4.986 4.743-6.87 2.62-1.267-1.806-.103-5.71 2.593-9.069zm25.909-2.905c-.421.353-2.148 2.444-2.742 3.225-2.386 3.056-3.16 5.264-3.223 5.986a.561.561 0 0 0 .257.554c.166.118.416.101.568.059 1.064-.563 1.716-1.369 2.364-2.309 0 0 .462-.672.459-.663a262.497 262.497 0 0 0 4.348-7.146c-.049-.369-.615-.89-2.031.295zm-19.339 4.576s-.026.076-.04.1c-.003 0-1.33 2.058-1.33 2.058l-.019.024c-.797 1.012-1.791 2.273-3.03 2.88-.371.118-.883.194-1.144-.116-.554-.63-.268-1.503-.037-2.208l.082-.252c.664-1.713 1.718-3.225 2.744-4.627a.139.139 0 0 1 .051-.016.03.03 0 0 0 .003.006.04.04 0 0 1 .006.019c.643 1.175 1.85 1.72 2.753 1.973.005 0 .011.008.011.025a.4.4 0 0 1-.05.134zm.666-1.133s.585-1.276.591-1.293c.201-.571.378-1.184.378-1.73 0-.403-.097-.772-.352-1.058-.415-.31-1.13-.15-1.589.152-.478.344-1.565 1.292-1.3 2.502.191.62.813 1.141 1.638 1.385l.263.042.02.004c.145.032.27.06.351-.004zm41.578-1.847c1.016-.235 5.122-3.182 5.582-8.203.019-.185.02-.32-.041-.53-2.53 1.235-4.889 3.645-6.27 6.483-.938 2.107.113 2.367.729 2.25zM47.483 8.453h2.897l-1.635 2.524H45.85l1.634-2.524zM84.71 27.238c-.311.203-.748.047-.585-.42.407-1.189 2.024-3.611 2.024-3.611l4.505-7.696H87.57c-.147.232-.46.765-.46.765-.143-.229-.57-.738-.746-.848-.754-.459-1.86-.242-2.623.174-3.275 1.844-5.676 5.465-7.574 8.327l-.074.111s-2.01 3.2-3.125 3.438c-.87.068-.78-1.062-.743-1.325.337-1.902 1.119-3.711 1.907-5.35a42.387 42.387 0 0 0 5.093-4.007c3.606-3.32 6.647-7.082 7.091-7.923 0 0-.48.094-1.049.11-2.775 3.728-8.453 9.146-10.174 9.952.763-1.766 5.69-10.198 9.882-14.23l.66-.612c1.02-.96 2.077-1.945 2.901-2.106.087-.009.2 0 .296.195.037.747-.252 1.3-.583 1.928l-.465.917s.658-.12 1.09-.255c.501-.908 1.056-1.928.851-3.142a.917.917 0 0 0-.745-.755c-1.25-.23-2.614.662-3.71 1.384l-.045.025c-5.638 4.254-10.4 10.385-14.562 18.757-.301.22-1.467.484-1.665.356.411-.815.929-1.91 1.188-3.099.044-.34.086-.688.086-1.027 0-.731-.182-1.419-.862-1.894-.797-.382-1.782-.204-2.446.085-2.975 1.189-5.2 4.127-6.804 6.546-.863 1.538-1.724 3.184-1.962 5.07-.168 1.477.174 2.428 1.046 2.903.897.442 2.026-.017 2.47-.238 3.014-1.528 5.12-4.593 6.78-7.395.01-.002.042-.003.09-.006.258-.014.991-.055 1.568-.198.009 0 .013 0 .028.009-.04.127-.394 1.146-.394 1.146-1.052 2.971-1.538 4.993-.544 6.19 1.42 1.69 3.771-.06 5.684-2.37-.41 2.768 1.079 3.202 2.214 2.99 1.305-.34 2.758-1.682 3.433-2.37-.217.807-.158 2.251 1.028 2.395.699.125 1.246-.172 1.832-.49.097-.052.195-.105.294-.156 2.527-1.325 5.55-5.74 6.336-7.016h-1.03l-.122.178c-1.097 1.6-2.478 3.613-4.2 4.588zm-22.675-.296c-.16-.23-.214-.48-.219-.75-.03-1.666 1.83-4.648 3.142-6.272h.003c.55 1.16 1.796 1.906 2.548 2.22-.934 2.005-4.138 6.296-5.474 4.802zm4.038-7.548c.303 1.4 1.874 1.91 1.963 1.85.504-.845.893-1.75 1.156-2.69l.007-.06.004-.027c.033-.256.07-.534.07-.806 0-.458-.1-.882-.468-1.12-.396-.136-.935-.043-1.293.23-.835.474-1.697 1.416-1.44 2.623zm14.564 7.013-.298.255-.028.024c-.415.358-.844.727-1.358.536-.146-.05-.248-.238-.273-.382-.024-1.041.461-2.006.934-2.945l.004-.01.122-.246.07-.114c1.347-2.166 2.916-4.689 5.201-6.45.392-.272.817-.5 1.266-.322.103.093.224.255.224.416a.684.684 0 0 1-.075.229 83.64 83.64 0 0 0-1.66 2.736v.001l-.21.354c-1.175 2.012-2.394 4.092-3.919 5.918z" fill="#C4C4C4"/>
</svg>
