<svg width="133" height="27" viewBox="0 0 133 27" fill="none" xmlns="http://www.w3.org/2000/svg">
    <path fill-rule="evenodd" clip-rule="evenodd" d="M68.277 12.81c-1.095 0-1.884.36-2.684.725v8.285c.766.073 1.206.073 1.933.073 2.627 0 2.987-1.205 2.987-2.887V15.05c0-1.243-.412-2.24-2.236-2.24zm-17.45-.452c-1.822 0-2.238 1.002-2.238 2.242v.698h4.475V14.6c0-1.241-.416-2.243-2.236-2.243zM17.027 20.98c0 .981.462 1.491 1.483 1.491 1.096 0 1.744-.357 2.544-.725v-1.965h-2.395c-1.134 0-1.632.212-1.632 1.199zM85.25 12.81c-1.826 0-2.459.997-2.459 2.24v4.533c0 1.245.633 2.246 2.459 2.246 1.821 0 2.459-1.001 2.459-2.246V15.05c-.001-1.243-.639-2.24-2.459-2.24zM8.077 26.064H2.71V13.056H.028V8.574H2.71V5.882C2.71 2.225 4.224.051 8.526.051h3.583v4.483h-2.24c-1.674 0-1.785.627-1.785 1.796l-.007 2.243h4.056l-.474 4.482H8.077v13.009zm18.345.034h-4.474l-.193-1.133a10.244 10.244 0 0 1-5.069 1.316c-3.28 0-5.027-2.194-5.027-5.229 0-3.58 2.038-4.858 5.683-4.858h3.71v-.774c0-1.828-.209-2.364-3.016-2.364h-4.59l.45-4.482h5.016c6.159 0 7.51 1.948 7.51 6.882v10.642zm15.212-12.713c-2.784-.478-3.583-.583-4.923-.583-2.406 0-3.133.531-3.133 2.577v3.87c0 2.045.727 2.579 3.133 2.579 1.34 0 2.14-.107 4.923-.587v4.372c-2.438.548-4.027.692-5.37.692-5.762 0-8.053-3.035-8.053-7.418v-3.14c0-4.386 2.29-7.426 8.053-7.426 1.343 0 2.931.144 5.37.694v4.37zm16.797 5.502h-9.843v.361c0 2.046.728 2.58 3.133 2.58 2.162 0 3.482-.107 6.261-.587v4.372c-2.68.548-4.077.692-6.706.692-5.763 0-8.055-3.035-8.055-7.418v-3.59c0-3.835 1.7-6.976 7.606-6.976s7.604 3.105 7.604 6.976v3.59zm17.448.083c0 4.236-1.209 7.327-8.535 7.327-2.646 0-4.197-.233-7.117-.683V1.398L65.591.5v8.471c1.16-.431 2.66-.65 4.026-.65 5.367 0 6.26 2.408 6.26 6.28v4.368h.001zm17.2.092c0 3.655-1.506 7.2-7.811 7.2-6.308 0-7.844-3.545-7.844-7.2v-3.528c0-3.657 1.536-7.202 7.844-7.202 6.305 0 7.812 3.545 7.812 7.202v3.528zm17.19 0c0 3.655-1.509 7.2-7.813 7.2-6.308 0-7.843-3.545-7.843-7.2v-3.528c0-3.657 1.535-7.202 7.843-7.202 6.304 0 7.813 3.545 7.813 7.202v3.528zm17.639 7.002h-5.816l-4.919-8.222v8.222h-5.367V1.397l5.367-.896v15.88l4.919-7.807h5.816l-5.37 8.519 5.37 8.97zm-25.47-13.254c-1.823 0-2.456.997-2.456 2.24v4.533c0 1.245.633 2.246 2.456 2.246 1.82 0 2.464-1.001 2.464-2.246V15.05c0-1.243-.644-2.24-2.464-2.24zm28.534 10.186c.904 0 1.624.738 1.624 1.66 0 .935-.721 1.665-1.631 1.665-.905 0-1.64-.73-1.64-1.666 0-.921.735-1.66 1.64-1.66h.007zm-.007.258c-.728 0-1.324.627-1.324 1.401 0 .788.597 1.407 1.331 1.407.735.008 1.322-.619 1.322-1.4 0-.78-.587-1.408-1.322-1.408h-.007zm-.308 2.367h-.295v-1.852c.155-.021.302-.043.523-.043.28 0 .462.06.575.14.108.081.167.206.167.382 0 .245-.161.392-.359.451v.014c.161.03.271.177.308.449.043.288.088.398.117.458h-.309c-.043-.06-.088-.229-.125-.473-.043-.235-.162-.324-.397-.324h-.205v.798zm0-1.025h.213c.242 0 .447-.089.447-.318 0-.162-.116-.324-.447-.324-.096 0-.163.008-.213.014v.628z" fill="#C4C4C4"/>
</svg>
