<svg width="130" height="27" viewBox="0 0 130 27" fill="none" xmlns="http://www.w3.org/2000/svg">
    <path fill-rule="evenodd" clip-rule="evenodd" d="M13.576 12.827H0V0h13.576v12.827zm14.48 0H14.481V0h13.575v12.827zM0 26.57h13.576V13.743H0V26.57zm28.056 0H14.481V13.743h13.575V26.57zM129.421 9.657v2.31h-2.818v5.685c0 .729.129 1.25.382 1.547.25.296.654.445 1.199.445.145 0 .332-.032.556-.096.223-.063.414-.148.566-.252l.115-.077v2.332l-.037.022c-.168.098-.453.19-.871.281-.411.09-.814.135-1.196.135-2.327 0-3.507-1.29-3.507-3.838v-6.184h-4.177v9.732h-2.817v-9.732h-1.961v-2.31h1.961V7.99c0-.837.182-1.594.54-2.249a3.831 3.831 0 0 1 1.523-1.533c.651-.361 1.398-.543 2.22-.543.652 0 1.178.071 1.565.213l.049.018v2.433l-.104-.047a2.966 2.966 0 0 0-1.225-.284c-.553 0-.987.18-1.291.537-.305.36-.46.9-.46 1.606v1.516h4.177V6.936l.052-.016 2.647-.825.094-.03v3.592h2.818zm-23.252 8.963c.568.68 1.374 1.024 2.396 1.024 1.028 0 1.815-.338 2.338-1.005.527-.672.794-1.677.794-2.984 0-1.292-.284-2.283-.844-2.947-.557-.661-1.334-.996-2.311-.996-1.006 0-1.805.35-2.373 1.041-.572.695-.861 1.695-.861 2.972 0 1.237.289 2.211.861 2.895zm2.521-9.253c-1.95 0-3.499.582-4.604 1.73-1.103 1.147-1.663 2.735-1.663 4.72 0 1.885.546 3.402 1.624 4.507 1.077 1.105 2.544 1.665 4.358 1.665 1.891 0 3.409-.59 4.513-1.754 1.104-1.162 1.663-2.735 1.663-4.673 0-1.915-.525-3.443-1.56-4.54-1.036-1.099-2.494-1.655-4.331-1.655zm-14.07 1.026c.838-.68 1.935-1.026 3.262-1.026.406 0 .873.049 1.387.146.517.098.943.218 1.266.36l.044.019v2.619l-.115-.08c-.35-.243-.77-.441-1.246-.589a4.826 4.826 0 0 0-1.427-.223c-.506 0-.909.116-1.199.344-.287.227-.427.508-.427.858 0 .395.113.707.337.928.232.228.793.526 1.67.884 1.1.452 1.89.963 2.344 1.52.458.561.69 1.257.69 2.069 0 1.125-.431 2.045-1.282 2.735-.846.685-2.005 1.032-3.445 1.032a7.873 7.873 0 0 1-1.595-.187c-.592-.125-1.094-.282-1.493-.47l-.043-.02v-2.76l.117.085a5.746 5.746 0 0 0 1.577.814c.567.19 1.085.286 1.54.286 1.224 0 1.82-.393 1.82-1.202 0-.284-.06-.515-.175-.683-.12-.172-.33-.348-.627-.524-.304-.18-.782-.406-1.424-.675-.763-.334-1.339-.662-1.712-.975a2.994 2.994 0 0 1-.841-1.12c-.182-.425-.274-.928-.274-1.493 0-1.088.427-1.986 1.27-2.672zm-8.614 9.252c-1.022 0-1.828-.346-2.396-1.025-.571-.684-.86-1.658-.86-2.895 0-1.277.289-2.277.86-2.972.569-.69 1.367-1.041 2.374-1.041.976 0 1.753.335 2.31.995.56.665.844 1.656.844 2.948 0 1.307-.267 2.312-.794 2.984-.523.667-1.309 1.006-2.338 1.006zm-4.478-8.549c1.104-1.147 2.653-1.73 4.604-1.73 1.837 0 3.294.557 4.33 1.655 1.036 1.098 1.56 2.626 1.56 4.54 0 1.94-.559 3.512-1.663 4.674-1.104 1.164-2.622 1.754-4.512 1.754-1.815 0-3.28-.56-4.358-1.665-1.078-1.105-1.625-2.62-1.625-4.507 0-1.985.56-3.573 1.664-4.72zm-5.939.646V9.657h-2.782v12.041h2.782v-6.16c0-1.047.233-1.907.694-2.557.454-.642 1.06-.968 1.799-.968.25 0 .532.042.837.126.301.082.52.172.648.267l.117.086V9.636l-.045-.02c-.259-.112-.626-.168-1.09-.168-.699 0-1.324.229-1.86.679-.47.396-.81.938-1.07 1.615h-.03zm-11.147-1.547c.968-.55 2.106-.828 3.383-.828.497 0 1.02.057 1.555.17.537.113.97.262 1.287.443l.038.022v2.734l-.117-.086c-.843-.623-1.734-.938-2.648-.938-1.07 0-1.948.369-2.61 1.096-.664.73-1.001 1.719-1.001 2.94 0 1.213.323 2.176.96 2.863.637.686 1.513 1.034 2.605 1.034.393 0 .841-.089 1.333-.264a5.201 5.201 0 0 0 1.36-.721l.118-.087v2.595l-.037.021c-.905.531-2.034.8-3.356.8-1.133 0-2.156-.253-3.041-.753a5.285 5.285 0 0 1-2.082-2.142c-.495-.92-.745-1.965-.745-3.103 0-1.298.258-2.463.766-3.46.51-1 1.261-1.786 2.232-2.336zm-4.914-.538h-2.782v12.041h2.782V9.657zM56.98 5a1.66 1.66 0 0 1 1.185-.473c.482 0 .889.164 1.21.486.32.323.484.716.484 1.168 0 .462-.168.852-.498 1.159-.328.306-.73.46-1.196.46-.465 0-.866-.154-1.19-.46a1.53 1.53 0 0 1-.492-1.159c0-.468.167-.865.497-1.18zM51.224 8.77v12.93h2.839V4.895h-3.93l-4.995 12.48-4.847-12.48h-4.09v16.802h2.669V8.768h.091l5.119 12.93h2.014l5.038-12.93h.092z" fill="#C4C4C4"/>
</svg>
