<svg width="98" height="27" viewBox="0 0 98 27" fill="none" xmlns="http://www.w3.org/2000/svg">
    <path fill-rule="evenodd" clip-rule="evenodd" d="M13.404 25.084c-1.467.262-2.959.34-4.502.55L4.193 11.626v14.607c-1.466.157-2.804.366-4.193.575V.05h3.91l5.352 15.183V.05h4.142v25.034zM21.508 9.85c1.595 0 4.039-.079 5.505-.079v4.181c-1.827 0-3.962 0-5.505.079v6.22c2.418-.158 4.836-.367 7.28-.445v4.024l-11.397.915V.05h11.397v4.181h-7.28V9.85zM44.096 4.23h-4.27v19.233c-1.39 0-2.78 0-4.117.053V4.23h-4.27V.051h12.657v4.18zm6.689 5.331h5.634v4.181h-5.634v9.486h-4.04V.05h11.5v4.181h-7.46v5.331zm14.15 10.009c2.34.052 4.707.235 6.997.365v4.13c-3.679-.236-7.358-.47-11.114-.55V.05h4.116v19.52zm10.47 4.782c1.312.078 2.701.157 4.04.313V.05h-4.04v24.303zM97.48.05l-5.223 12.726L97.48 26.81c-1.544-.209-3.087-.496-4.631-.758l-2.959-7.734-3.01 7.107c-1.492-.261-2.932-.34-4.424-.549l5.3-12.255L82.968.05h4.425l2.701 7.03L92.977.05h4.502z" fill="#C4C4C4"/>
</svg>
