<svg width="100" height="21" viewBox="0 0 100 21" fill="none" xmlns="http://www.w3.org/2000/svg">
    <path fill-rule="evenodd" clip-rule="evenodd" d="M16.176 0h3.832v12.153c0 6.394-4.086 8.639-10.014 8.639C4.086 20.792 0 18.547 0 12.153V.487C0 .148.17 0 .508 0H4.34v11.963c0 3.832 1.694 5.42 5.654 5.42 3.98 0 5.674-1.588 5.674-5.42V.487c0-.339.17-.487.508-.487zM59.56 3.324v5.124h9.697c.17 0 .233.085.17.254l-1.059 2.626c-.106.232-.254.338-.572.338H62.1c-1.863 0-2.54.572-2.54 1.821v3.62h13.126c.17 0 .233.085.17.255l-1.101 2.731c-.106.233-.254.339-.572.339H56.807c-1.101 0-1.525-.381-1.525-1.207V1.419c0-.996.55-1.419 1.99-1.419h15.414c.17 0 .233.085.17.233l-1.101 2.752c-.106.233-.254.34-.572.34H59.56zM47.385 14.78c0 4.086-2.88 5.653-6.924 5.653H29.748c-1.122 0-1.525-.381-1.525-1.207V1.419c0-.996.53-1.419 1.99-1.419h8.703c3.81 0 7.495.656 7.495 5.187 0 1.948-.699 3.6-2.372 4.468 2.308.614 3.346 2.689 3.346 5.124zM32.437 8.51h6.796c2.245 0 2.88-.868 2.88-2.646 0-1.779-.635-2.626-2.88-2.626h-6.796v5.272zm10.65 5.887c0-1.885-.657-2.816-3.07-2.816h-5.018c-1.864 0-2.562.571-2.562 1.82v3.79h7.58c2.413 0 3.07-.931 3.07-2.794zm56.32 6.034H95.51c-.318 0-.445-.127-.572-.339L90.81 12.64h-3.79c-1.863 0-2.561.572-2.561 1.821v5.97h-3.727c-.339 0-.508-.169-.508-.486V1.419c0-.996.55-1.419 1.99-1.419h8.745c5.102 0 8.172 1.334 8.172 6.288 0 3.833-1.842 5.336-4.128 5.929l4.594 7.855c.085.127.085.36-.19.36zM94.832 6.373c0-2.075-.572-3.091-3.24-3.091h-7.135v6.182h7.136c2.668 0 3.24-.995 3.24-3.091z" fill="#C4C4C4"/>
</svg>
