<svg width="81" height="25" viewBox="0 0 81 25" fill="none" xmlns="http://www.w3.org/2000/svg">
    <path fill-rule="evenodd" clip-rule="evenodd" d="M35.041 24.56h-6.588L32.57.438h6.59L35.04 24.56zM22.911.438 16.628 17.03l-.743-3.574.001.002L13.67 2.609S13.402.437 10.545.437H.16L.04.845s3.175.63 6.891 2.758l5.724 20.959h6.864L30.001.436h-7.09zM74.73 24.56h6.049L75.504.436H70.21c-2.446 0-3.041 1.798-3.041 1.798l-9.826 22.327h6.868l1.373-3.584h8.375l.772 3.584zm-7.25-8.534L70.942 7l1.948 9.027h-5.41zm-9.624-9.789.94-5.18S55.897.006 52.872.006c-3.27 0-11.034 1.362-11.034 7.986 0 6.232 9.113 6.31 9.113 9.584 0 3.273-8.174 2.686-10.871.622l-.98 5.417s2.942 1.362 7.437 1.362c4.496 0 11.278-2.22 11.278-8.26 0-6.271-9.194-6.855-9.194-9.582 0-2.728 6.417-2.378 9.236-.897z" fill="#C4C4C4"/>
</svg>
