<svg width="19" height="24" viewBox="0 0 19 24" fill="none" xmlns="http://www.w3.org/2000/svg">
    <path fill-rule="evenodd" clip-rule="evenodd" d="M2.64 16.719a2.64 2.64 0 1 1 0 5.28 2.64 2.64 0 0 1 0-5.28zm13.72 0a2.64 2.64 0 1 1 0 5.28 2.64 2.64 0 0 1 0-5.28zM2.64 9.859a2.64 2.64 0 1 1 0 5.281 2.64 2.64 0 0 1 0-5.28zm6.86 0a2.64 2.64 0 1 1 0 5.281 2.64 2.64 0 0 1 0-5.28zM2.64 3a2.64 2.64 0 1 1 0 5.282A2.64 2.64 0 0 1 2.64 3zm13.72 0a2.64 2.64 0 1 1 0 5.282 2.64 2.64 0 0 1 0-5.281zM9.5 3a2.64 2.64 0 1 1 0 5.282A2.64 2.64 0 0 1 9.5 3z" fill="#212121"/>
</svg>
