<svg width="16" height="16" viewBox="0 0 16 16" fill="none" xmlns="http://www.w3.org/2000/svg">
    <path fill-rule="evenodd" clip-rule="evenodd" d="M10.5 1.333a.5.5 0 0 1 .495.432l.005.068v.834h.833c1.013 0 1.834.82 1.834 1.833v8c0 1.012-.821 1.833-1.834 1.833h-8A1.833 1.833 0 0 1 2 12.5v-8c0-1.013.82-1.833 1.833-1.833h.834v-.834a.5.5 0 0 1 .995-.068l.005.068v.834H10v-.834a.5.5 0 0 1 .5-.5zM12.667 4.5v2.167H3V4.5c0-.46.373-.833.833-.833h.834V4.5l.004.068a.5.5 0 0 0 .996-.068v-.833H10V4.5l.005.068A.5.5 0 0 0 11 4.5v-.833h.833c.46 0 .834.373.834.833zm0 3.167H3V12.5c0 .46.373.833.833.833h8c.46 0 .834-.373.834-.833V7.667zM6.5 9.333H5.167a.5.5 0 0 0-.5.5v1.334a.5.5 0 0 0 .5.5H6.5a.5.5 0 0 0 .5-.5V9.833a.5.5 0 0 0-.5-.5zm-.5 1v.334h-.333v-.334H6z" fill="#0D6EFD"/>
</svg>
